<svg width="100" height="20" viewBox="0 0 100 20" fill="none" xmlns="http://www.w3.org/2000/svg">
<mask id="mask0_1007_66" style="mask-type:alpha" maskUnits="userSpaceOnUse" x="0" y="0" width="20" height="20">
<rect x="0.5" y="0.5" width="19" height="19" fill="#FFFEFB" stroke="#E06437"/>
</mask>
<g mask="url(#mask0_1007_66)">
<path d="M10.4696 3.88508L10.1788 4.29184C10.2284 4.32732 10.2784 4.38472 10.3183 4.4914L11.5226 8.478L11.6299 8.83341H12.0012H15.7304C15.8496 8.83341 15.908 8.86108 15.9391 8.88369C15.971 8.90689 16.0185 8.9571 16.0595 9.0777C16.0994 9.19588 16.0901 9.25841 16.0802 9.28925C16.0703 9.31987 16.0418 9.37512 15.9414 9.44624L15.9408 9.44662L12.92 11.5925L12.6253 11.8018L12.7317 12.1473L13.9175 15.9959C13.9494 16.1099 13.9394 16.175 13.926 16.2128C13.9122 16.2515 13.8771 16.3112 13.7747 16.3837C13.6732 16.4556 13.6112 16.4644 13.5796 16.4637C13.5483 16.4631 13.4883 16.452 13.3927 16.3772L13.3927 16.3771L13.388 16.3735L10.3046 14.0193L10.0012 13.7877L9.6978 14.0193L6.61446 16.3735L6.61444 16.3735L6.60974 16.3772C6.51413 16.452 6.45413 16.4631 6.42288 16.4637C6.39123 16.4644 6.32921 16.4556 6.22773 16.3837C6.12538 16.3112 6.09027 16.2515 6.0765 16.2128C6.06306 16.175 6.05307 16.1099 6.08492 15.996L7.27072 12.1473L7.37717 11.8018L7.08244 11.5925L4.06161 9.44662L4.06107 9.44624C3.96072 9.37516 3.93239 9.32003 3.92261 9.28963C3.91273 9.25893 3.90344 9.19634 3.94378 9.0777L3.94398 9.07709C3.98478 8.95659 4.03208 8.90659 4.06374 8.88354C4.0946 8.86109 4.1528 8.83341 4.27206 8.83341H8.00122H8.3725L8.47986 8.478L9.68415 4.4914C9.72401 4.38471 9.77402 4.32732 9.82366 4.29184C9.89084 4.24396 9.94654 4.22925 10.0012 4.22925C10.056 4.22925 10.1118 4.244 10.1791 4.29205L10.4696 3.88508ZM10.4696 3.88508C10.324 3.78119 10.1679 3.72925 10.0012 3.72925C9.83456 3.72925 9.67845 3.78119 9.53289 3.88508L10.7929 4.33341C10.7234 4.13897 10.6157 3.98953 10.4696 3.88508Z" fill="#FFFEFB" stroke="#E06437"/>
</g>
<mask id="mask1_1007_66" style="mask-type:alpha" maskUnits="userSpaceOnUse" x="20" y="0" width="20" height="20">
<rect x="20.5" y="0.5" width="19" height="19" fill="#FFFEFB" stroke="#E06437"/>
</mask>
<g mask="url(#mask1_1007_66)">
<path d="M30.4696 3.88508L30.1788 4.29184C30.2284 4.32732 30.2784 4.38472 30.3183 4.4914L31.5226 8.478L31.6299 8.83341H32.0012H35.7304C35.8496 8.83341 35.908 8.86108 35.9391 8.88369C35.971 8.90689 36.0185 8.9571 36.0595 9.0777C36.0994 9.19588 36.0901 9.25841 36.0802 9.28925C36.0703 9.31987 36.0418 9.37512 35.9414 9.44624L35.9408 9.44662L32.92 11.5925L32.6253 11.8018L32.7317 12.1473L33.9175 15.9959C33.9494 16.1099 33.9394 16.175 33.926 16.2128C33.9122 16.2515 33.8771 16.3112 33.7747 16.3837C33.6732 16.4556 33.6112 16.4644 33.5796 16.4637C33.5483 16.4631 33.4883 16.452 33.3927 16.3772L33.3927 16.3771L33.388 16.3735L30.3046 14.0193L30.0012 13.7877L29.6978 14.0193L26.6145 16.3735L26.6144 16.3735L26.6097 16.3772C26.5141 16.452 26.4541 16.4631 26.4229 16.4637C26.3912 16.4644 26.3292 16.4556 26.2277 16.3837C26.1254 16.3112 26.0903 16.2515 26.0765 16.2128C26.0631 16.175 26.0531 16.1099 26.0849 15.996L27.2707 12.1473L27.3772 11.8018L27.0824 11.5925L24.0616 9.44662L24.0611 9.44624C23.9607 9.37516 23.9324 9.32003 23.9226 9.28963C23.9127 9.25893 23.9034 9.19634 23.9438 9.0777L23.944 9.07709C23.9848 8.95659 24.0321 8.90659 24.0637 8.88354C24.0946 8.86109 24.1528 8.83341 24.2721 8.83341H28.0012H28.3725L28.4799 8.478L29.6841 4.4914C29.724 4.38471 29.774 4.32732 29.8237 4.29184C29.8908 4.24396 29.9465 4.22925 30.0012 4.22925C30.056 4.22925 30.1118 4.244 30.1791 4.29205L30.4696 3.88508ZM30.4696 3.88508C30.324 3.78119 30.1679 3.72925 30.0012 3.72925C29.8346 3.72925 29.6784 3.78119 29.5329 3.88508L30.7929 4.33341C30.7234 4.13897 30.6157 3.98953 30.4696 3.88508Z" fill="#FFFEFB" stroke="#E06437"/>
</g>
<mask id="mask2_1007_66" style="mask-type:alpha" maskUnits="userSpaceOnUse" x="40" y="0" width="20" height="20">
<rect x="40.5" y="0.5" width="19" height="19" fill="#FFFEFB" stroke="#E06437"/>
</mask>
<g mask="url(#mask2_1007_66)">
<path d="M50.4696 3.88508L50.1788 4.29184C50.2284 4.32732 50.2784 4.38472 50.3183 4.4914L51.5226 8.478L51.6299 8.83341H52.0012H55.7304C55.8496 8.83341 55.908 8.86108 55.9391 8.88369C55.971 8.90689 56.0185 8.9571 56.0595 9.0777C56.0994 9.19588 56.0901 9.25841 56.0802 9.28925C56.0703 9.31987 56.0418 9.37512 55.9414 9.44624L55.9408 9.44662L52.92 11.5925L52.6253 11.8018L52.7317 12.1473L53.9175 15.9959C53.9494 16.1099 53.9394 16.175 53.926 16.2128C53.9122 16.2515 53.8771 16.3112 53.7747 16.3837C53.6732 16.4556 53.6112 16.4644 53.5796 16.4637C53.5483 16.4631 53.4883 16.452 53.3927 16.3772L53.3927 16.3771L53.388 16.3735L50.3046 14.0193L50.0012 13.7877L49.6978 14.0193L46.6145 16.3735L46.6144 16.3735L46.6097 16.3772C46.5141 16.452 46.4541 16.4631 46.4229 16.4637C46.3912 16.4644 46.3292 16.4556 46.2277 16.3837C46.1254 16.3112 46.0903 16.2515 46.0765 16.2128C46.0631 16.175 46.0531 16.1099 46.0849 15.996L47.2707 12.1473L47.3772 11.8018L47.0824 11.5925L44.0616 9.44662L44.0611 9.44624C43.9607 9.37516 43.9324 9.32003 43.9226 9.28963C43.9127 9.25893 43.9034 9.19634 43.9438 9.0777L43.944 9.07709C43.9848 8.95659 44.0321 8.90659 44.0637 8.88354C44.0946 8.86109 44.1528 8.83341 44.2721 8.83341H48.0012H48.3725L48.4799 8.478L49.6841 4.4914C49.724 4.38471 49.774 4.32732 49.8237 4.29184C49.8908 4.24396 49.9465 4.22925 50.0012 4.22925C50.056 4.22925 50.1118 4.244 50.1791 4.29205L50.4696 3.88508ZM50.4696 3.88508C50.324 3.78119 50.1679 3.72925 50.0012 3.72925C49.8346 3.72925 49.6784 3.78119 49.5329 3.88508L50.7929 4.33341C50.7234 4.13897 50.6157 3.98953 50.4696 3.88508Z" fill="#FFFEFB" stroke="#E06437"/>
</g>
<mask id="mask3_1007_66" style="mask-type:alpha" maskUnits="userSpaceOnUse" x="60" y="0" width="20" height="20">
<rect x="60.5" y="0.5" width="19" height="19" fill="#FFFEFB" stroke="#E06437"/>
</mask>
<g mask="url(#mask3_1007_66)">
<path d="M70.4696 3.88508L70.1788 4.29184C70.2284 4.32732 70.2784 4.38472 70.3183 4.4914L71.5226 8.478L71.6299 8.83341H72.0012H75.7304C75.8496 8.83341 75.908 8.86108 75.9391 8.88369C75.971 8.90689 76.0185 8.9571 76.0595 9.0777C76.0994 9.19588 76.0901 9.25841 76.0802 9.28925C76.0703 9.31987 76.0418 9.37512 75.9414 9.44624L75.9408 9.44662L72.92 11.5925L72.6253 11.8018L72.7317 12.1473L73.9175 15.9959C73.9494 16.1099 73.9394 16.175 73.926 16.2128C73.9122 16.2515 73.8771 16.3112 73.7747 16.3837C73.6732 16.4556 73.6112 16.4644 73.5796 16.4637C73.5483 16.4631 73.4883 16.452 73.3927 16.3772L73.3927 16.3771L73.388 16.3735L70.3046 14.0193L70.0012 13.7877L69.6978 14.0193L66.6145 16.3735L66.6144 16.3735L66.6097 16.3772C66.5141 16.452 66.4541 16.4631 66.4229 16.4637C66.3912 16.4644 66.3292 16.4556 66.2277 16.3837C66.1254 16.3112 66.0903 16.2515 66.0765 16.2128C66.0631 16.175 66.0531 16.1099 66.0849 15.996L67.2707 12.1473L67.3772 11.8018L67.0824 11.5925L64.0616 9.44662L64.0611 9.44624C63.9607 9.37516 63.9324 9.32003 63.9226 9.28963C63.9127 9.25893 63.9034 9.19634 63.9438 9.0777L63.944 9.07709C63.9848 8.95659 64.0321 8.90659 64.0637 8.88354C64.0946 8.86109 64.1528 8.83341 64.2721 8.83341H68.0012H68.3725L68.4799 8.478L69.6841 4.4914C69.724 4.38471 69.774 4.32732 69.8237 4.29184C69.8908 4.24396 69.9465 4.22925 70.0012 4.22925C70.056 4.22925 70.1118 4.244 70.1791 4.29205L70.4696 3.88508ZM70.4696 3.88508C70.324 3.78119 70.1679 3.72925 70.0012 3.72925C69.8346 3.72925 69.6784 3.78119 69.5329 3.88508L70.7929 4.33341C70.7234 4.13897 70.6157 3.98953 70.4696 3.88508Z" fill="#FFFEFB" stroke="#E06437"/>
</g>
<mask id="mask4_1007_66" style="mask-type:alpha" maskUnits="userSpaceOnUse" x="80" y="0" width="20" height="20">
<rect x="80.5" y="0.5" width="19" height="19" fill="#FFFEFB" stroke="#E06437"/>
</mask>
<g mask="url(#mask4_1007_66)">
<path d="M90.4696 3.88508L90.1788 4.29184C90.2284 4.32732 90.2784 4.38472 90.3183 4.4914L91.5226 8.478L91.6299 8.83341H92.0012H95.7304C95.8496 8.83341 95.908 8.86108 95.9391 8.88369C95.971 8.90689 96.0185 8.9571 96.0595 9.0777C96.0994 9.19588 96.0901 9.25841 96.0802 9.28925C96.0703 9.31987 96.0418 9.37512 95.9414 9.44624L95.9408 9.44662L92.92 11.5925L92.6253 11.8018L92.7317 12.1473L93.9175 15.9959C93.9494 16.1099 93.9394 16.175 93.926 16.2128C93.9122 16.2515 93.8771 16.3112 93.7747 16.3837C93.6732 16.4556 93.6112 16.4644 93.5796 16.4637C93.5483 16.4631 93.4883 16.452 93.3927 16.3772L93.3927 16.3771L93.388 16.3735L90.3046 14.0193L90.0012 13.7877L89.6978 14.0193L86.6145 16.3735L86.6144 16.3735L86.6097 16.3772C86.5141 16.452 86.4541 16.4631 86.4229 16.4637C86.3912 16.4644 86.3292 16.4556 86.2277 16.3837C86.1254 16.3112 86.0903 16.2515 86.0765 16.2128C86.0631 16.175 86.0531 16.1099 86.0849 15.996L87.2707 12.1473L87.3772 11.8018L87.0824 11.5925L84.0616 9.44662L84.0611 9.44624C83.9607 9.37516 83.9324 9.32003 83.9226 9.28963C83.9127 9.25893 83.9034 9.19634 83.9438 9.0777L83.944 9.07709C83.9848 8.95659 84.0321 8.90659 84.0637 8.88354C84.0946 8.86109 84.1528 8.83341 84.2721 8.83341H88.0012H88.3725L88.4799 8.478L89.6841 4.4914C89.724 4.38471 89.774 4.32732 89.8237 4.29184C89.8908 4.24396 89.9465 4.22925 90.0012 4.22925C90.056 4.22925 90.1118 4.244 90.1791 4.29205L90.4696 3.88508ZM90.4696 3.88508C90.324 3.78119 90.1679 3.72925 90.0012 3.72925C89.8346 3.72925 89.6784 3.78119 89.5329 3.88508L90.7929 4.33341C90.7234 4.13897 90.6157 3.98953 90.4696 3.88508Z" fill="#FFFEFB" stroke="#E06437"/>
</g>
</svg>
