<svg width="468" height="28" viewBox="0 0 468 28" fill="none" xmlns="http://www.w3.org/2000/svg">
<path d="M267 11L467 11" stroke="#494646" stroke-linecap="round"/>
<path d="M201 13L1 13" stroke="#494646" stroke-linecap="round"/>
<path d="M229.5 11L271 11C272.667 10.1399 274.5 7.38756 271 5.32332L238 5.32332C235.274 1.84772 213.263 -4.01642 196.904 9.33268C196.202 9.9057 196.621 11 197.527 11L217.5 11" stroke="#494646" stroke-linecap="round"/>
<path d="M202.032 13.0856C212.873 12.0607 225.778 18.723 201 18.723C212.356 18.723 226.294 23.3354 202.032 24.8729C209.775 27.0936 225.468 29.4852 226.294 21.2854L270.688 21.2854C273.097 20.431 274.379 17.5 270.688 15.6472L226.294 15.6472C225.95 13.9389 223.713 10.6248 217.519 11.0348" stroke="#494646" stroke-linecap="round" stroke-linejoin="round"/>
</svg>
